HIERARCHY
ROOT Hips
{
	OFFSET 0.00000 0.00000 0.00000
	CHANNELS 6 Xposition Yposition Zposition Zrotation Yrotation Xrotation 
	JOINT LHipJoint
	{
		OFFSET 0 0 0
		CHANNELS 3 Zrotation Yrotation Xrotation
		JOINT LeftUpLeg
		{
			OFFSET 1.37959 -1.78713 0.86582
			CHANNELS 3 Zrotation Yrotation Xrotation
			JOINT LeftLeg
			{
				OFFSET 2.54611 -6.99539 0.00000
				CHANNELS 3 Zrotation Yrotation Xrotation
				JOINT LeftFoot
				{
					OFFSET 2.59951 -7.14211 0.00000
					CHANNELS 3 Zrotation Yrotation Xrotation
					JOINT LeftToeBase
					{
						OFFSET 0.18493 -0.50810 1.96120
						CHANNELS 3 Zrotation Yrotation Xrotation
						End Site
						{
							OFFSET 0.00000 -0.00000 1.02054
						}
					}
				}
			}
		}
	}
	JOINT RHipJoint
	{
		OFFSET 0 0 0
		CHANNELS 3 Zrotation Yrotation Xrotation
		JOINT RightUpLeg
		{
			OFFSET -1.33564 -1.78713 0.86582
			CHANNELS 3 Zrotation Yrotation Xrotation
			JOINT RightLeg
			{
				OFFSET -2.52705 -6.94302 0.00000
				CHANNELS 3 Zrotation Yrotation Xrotation
				JOINT RightFoot
				{
					OFFSET -2.55964 -7.03257 0.00000
					CHANNELS 3 Zrotation Yrotation Xrotation
					JOINT RightToeBase
					{
						OFFSET -0.25804 -0.70896 2.12109
						CHANNELS 3 Zrotation Yrotation Xrotation
						End Site
						{
							OFFSET -0.00000 -0.00000 1.11821
						}
					}
				}
			}
		}
	}
	JOINT LowerBack
	{
		OFFSET 0 0 0
		CHANNELS 3 Zrotation Yrotation Xrotation
		JOINT Spine
		{
			OFFSET -0.02031 2.24248 -0.18900
			CHANNELS 3 Zrotation Yrotation Xrotation
			JOINT Spine1
			{
				OFFSET 0.08342 2.24689 -0.03799
				CHANNELS 3 Zrotation Yrotation Xrotation
				JOINT Neck
				{
					OFFSET 0 0 0
					CHANNELS 3 Zrotation Yrotation Xrotation
					JOINT Neck1
					{
						OFFSET -0.11607 1.55844 0.24628
						CHANNELS 3 Zrotation Yrotation Xrotation
						JOINT Head
						{
							OFFSET 0.06877 1.60174 -0.17013
							CHANNELS 3 Zrotation Yrotation Xrotation
							End Site
							{
								OFFSET 0.03358 1.61266 -0.08543
							}
						}
					}
				}
				JOINT LeftShoulder
				{
					OFFSET 0 0 0
					CHANNELS 3 Zrotation Yrotation Xrotation
					JOINT LeftArm
					{
						OFFSET 3.47537 0.55866 -0.72348
						CHANNELS 3 Zrotation Yrotation Xrotation
						JOINT LeftForeArm
						{
							OFFSET 5.38154 -0.00000 0.00000
							CHANNELS 3 Zrotation Yrotation Xrotation
							JOINT LeftHand
							{
								OFFSET 3.33312 -0.00000 0.00000
								CHANNELS 3 Zrotation Yrotation Xrotation
								JOINT LeftFingerBase
								{
									OFFSET 0 0 0
									CHANNELS 3 Zrotation Yrotation Xrotation
									JOINT LeftHandIndex1
									{
										OFFSET 0.71079 -0.00000 0.00000
										CHANNELS 3 Zrotation Yrotation Xrotation
										End Site
										{
											OFFSET 0.57306 -0.00000 0.00000
										}
									}
								}
								JOINT LThumb
								{
									OFFSET 0 0 0
									CHANNELS 3 Zrotation Yrotation Xrotation
									End Site
									{
										OFFSET 0.58181 -0.00000 0.58181
									}
								}
							}
						}
					}
				}
				JOINT RightShoulder
				{
					OFFSET 0 0 0
					CHANNELS 3 Zrotation Yrotation Xrotation
					JOINT RightArm
					{
						OFFSET -3.27844 0.90739 -0.35708
						CHANNELS 3 Zrotation Yrotation Xrotation
						JOINT RightForeArm
						{
							OFFSET -5.16954 -0.00000 0.00000
							CHANNELS 3 Zrotation Yrotation Xrotation
							JOINT RightHand
							{
								OFFSET -3.38287 -0.00000 0.00000
								CHANNELS 3 Zrotation Yrotation Xrotation
								JOINT RightFingerBase
								{
									OFFSET 0 0 0
									CHANNELS 3 Zrotation Yrotation Xrotation
									JOINT RightHandIndex1
									{
										OFFSET -0.81797 -0.00000 0.00000
										CHANNELS 3 Zrotation Yrotation Xrotation
										End Site
										{
											OFFSET -0.65947 -0.00000 0.00000
										}
									}
								}
								JOINT RThumb
								{
									OFFSET 0 0 0
									CHANNELS 3 Zrotation Yrotation Xrotation
									End Site
									{
										OFFSET -0.66953 -0.00000 0.66953
									}
								}
							}
						}
					}
				}
			}
		}
	}
}
MOTION
Frames: 13
Frame Time: .0083333
4.502 14.9255 -16.4626 0 0 0 0 0 0 -21 0 0 0 0 0 0 0 0 0 0 0 0 0 0 21 0 0 0 0 0 0 0 0 0 0 0 0 0 0 0 0 0 0 0 0 0 0 -16 0 0 21 0 0 11 0 0 0 -8 0 0 0 0 0 0 0 0 0 0 0 0 0 0 0 0 0 0 0 0 8 0 0 0 0 0 0 0 0 0 0 0 0 0 0 0 0 0
4.5020 14.9255 -16.4626 -7.0437 -10.7374 2.3016 0.0000 0.0000 0.0000 -6.3564 -11.0678 -48.1362 14.4229 19.2373 73.4919 1.2781 -10.3669 -20.4115 0.4563 -4.3332 -12.0160 0.0000 0.0000 0.0000 7.9479 10.3558 -35.2305 -20.5910 -19.9916 91.7282 -0.3140 -0.9532 -10.9749 -0.0856 1.8870 -5.1936 5.4019 -0.2360 26.9397 4.7282 1.5154 6.5485 1.6544 0.6231 -7.5991 -7.6384 7.8867 -19.4347 -7.2224 15.1985 21.9391 0.8581 5.4336 10.3561 0.0000 -0.0000 0.0000 -86.5017 -1.3170 13.3181 79.6460 -59.5910 -51.0455 -0.0000 -0.0000 34.0343 28.3700 30.4383 15.3006 -7.1250 0.0000 -0.0000 -3.6683 63.6788 -1.6626 0.0000 -0.0000 0.0000 77.5645 2.2961 33.9257 -75.5850 59.2001 -47.5497 0.0000 -0.0000 -5.4851 -25.6549 33.3171 -14.7788 7.1250 -0.0000 -0.0000 3.6747 6.0530 4.0497
4.5828 14.9337 -16.0988 -6.5568 -12.1106 1.9426 0.0000 0.0000 0.0000 -6.9578 -10.8390 -46.9023 15.1764 19.4328 75.7676 1.2482 -13.3645 -20.7302 0.0794 1.8173 5.0009 0.0000 0.0000 0.0000 6.7285 11.1332 -38.2157 -20.4166 -19.9958 91.2181 -0.3890 -2.3258 -12.8635 -0.0190 0.8891 -2.4438 5.5344 -0.5432 27.7516 4.4934 1.1874 6.6381 1.4310 0.4543 -7.8924 -7.7180 8.3583 -19.3463 -8.0282 16.0077 21.4761 0.6976 5.7375 10.2549 -0.0000 0.0000 0.0000 -85.8145 -0.3992 11.9718 78.9705 -59.5353 -50.4631 -0.0000 -0.0000 33.0130 28.9136 30.9363 15.8519 -7.1250 0.0000 -0.0000 -3.2577 64.3510 -1.5274 -0.0000 0.0000 0.0000 77.7926 2.3306 33.2482 -73.9021 58.9978 -46.1057 0.0000 -0.0000 -5.2744 -25.5104 34.4058 -15.0904 7.1250 -0.0000 -0.0000 3.9550 7.1341 4.4256
4.6636 14.9031 -15.7285 -5.9905 -13.6639 1.4872 0.0000 0.0000 0.0000 -8.4802 -9.7651 -45.7885 15.6537 19.5409 77.1983 1.5131 -11.7501 -22.3038 0.0775 -1.7961 -4.9425 0.0000 0.0000 0.0000 5.4559 12.0396 -41.2162 -20.0472 -19.9999 90.1380 -0.4265 -3.4864 -14.1115 -0.0097 0.6348 -1.7443 5.7101 -0.8001 28.5022 4.2029 0.9142 6.8580 1.1033 0.3144 -8.0049 -7.5198 8.7909 -19.2298 -9.0988 16.7032 20.7694 0.3905 6.0045 10.1173 -0.0000 0.0000 0.0000 -86.1771 0.9137 10.4429 79.6507 -59.5914 -51.0495 -0.0000 -0.0000 32.5653 29.5645 31.4129 16.4707 -7.1250 0.0000 -0.0000 -2.6896 65.0346 -1.3035 -0.0000 0.0000 0.0000 77.9993 2.5829 32.3767 -71.6767 58.6926 -44.2012 0.0000 -0.0000 -5.2396 -26.4354 33.8139 -15.4655 7.1250 -0.0000 -0.0000 3.3379 6.7612 3.7137
4.7454 14.8636 -15.3522 -5.3301 -15.1090 1.1951 0.0000 0.0000 0.0000 -10.0876 -8.7541 -44.9259 16.1675 19.6441 78.7302 1.7009 -9.7355 -23.4045 0.8062 -5.7303 -16.0037 0.0000 0.0000 0.0000 4.0906 12.7401 -44.3668 -19.5269 -19.9946 88.6167 -0.4717 -3.7606 -14.8990 -0.0001 0.0654 -0.1797 5.8665 -1.0542 29.0188 3.9712 0.6306 7.0387 0.8564 0.1724 -8.0496 -7.5275 9.2161 -19.2405 -9.8966 17.4088 20.2180 0.2174 6.2792 10.0224 -0.0000 -0.0000 0.0000 -87.1339 1.8649 8.7313 80.0457 -59.6223 -51.3902 -0.0000 -0.0000 32.3315 29.1025 31.7205 16.3134 -7.1250 0.0000 -0.0000 -3.4665 65.2246 -1.6957 -0.0000 -0.0000 0.0000 78.0371 3.0355 31.3876 -69.1048 58.2842 -42.0085 0.0000 -0.0000 -5.3251 -26.5134 33.7831 -15.5040 7.1250 -0.0000 -0.0000 3.2892 6.7495 3.6587
4.8206 14.8456 -14.9762 -5.0697 -16.7118 1.0523 0.0000 0.0000 0.0000 -10.8592 -7.7382 -44.1138 16.7121 19.7388 80.3466 1.6522 -10.2156 -23.1008 0.8736 -5.9591 -16.6659 0.0000 0.0000 0.0000 3.3785 13.8599 -47.3322 -18.7421 -19.9620 86.3199 -0.5540 -3.2869 -15.6413 -0.0000 0.0229 -0.0630 6.2306 -1.2663 29.5866 3.8667 0.4829 7.1577 0.5898 0.0888 -8.1841 -7.8175 9.7485 -19.2041 -10.3140 18.2587 19.8350 0.2297 6.6371 9.9186 -0.0000 0.0000 0.0000 -85.9658 2.0648 8.7981 74.9496 -59.1266 -47.0042 -0.0000 -0.0000 30.1255 30.0265 32.8474 17.4058 -7.1250 0.0000 -0.0000 -2.9418 66.6698 -1.5368 -0.0000 0.0000 0.0000 78.0587 3.5240 30.3468 -66.3435 57.7761 -39.6658 0.0000 -0.0000 -5.7223 -27.2213 33.3530 -15.7917 7.1250 -0.0000 -0.0000 2.8181 6.4889 3.1221
4.8866 14.8346 -14.6095 -4.7977 -18.2883 0.7154 0.0000 0.0000 0.0000 -11.5548 -6.4921 -43.3392 17.3024 19.8246 82.0906 1.5073 -10.7141 -22.1333 1.0187 -6.4210 -18.0110 0.0000 0.0000 0.0000 2.8498 15.2410 -49.9795 -17.7201 -19.8749 83.3207 -0.6088 -2.8352 -16.0391 -0.0015 -0.2475 0.6801 6.5626 -1.4727 30.5719 3.6937 0.3751 7.2045 0.2586 0.0170 -8.5993 -7.8388 10.2645 -19.2937 -10.6714 19.0836 19.8552 0.2391 6.9637 10.0011 -0.0000 0.0000 0.0000 -87.4885 3.7143 6.3498 77.3553 -59.3871 -49.0719 -0.0000 -0.0000 30.1841 29.0671 32.7064 16.7171 -7.1250 0.0000 -0.0000 -4.1302 66.2399 -2.1176 -0.0000 0.0000 0.0000 78.2551 3.8449 29.1471 -63.5493 57.1839 -37.3096 0.0000 -0.0000 -6.1677 -28.9572 31.2251 -16.0055 7.1250 -0.0000 -0.0000 1.4440 4.7261 1.5586
4.9440 14.8263 -14.2382 -4.1932 -19.6442 0.1053 0.0000 0.0000 0.0000 -12.6185 -5.1563 -42.6575 17.9234 19.8963 83.9184 1.3042 -10.6531 -20.6459 1.5233 -7.7932 -22.0878 0.0000 0.0000 0.0000 2.2428 16.2504 -51.9859 -16.4778 -19.6999 79.6520 -0.5958 -2.3619 -15.6279 -0.0000 0.0344 -0.0946 6.7320 -1.7303 31.7761 3.3903 0.1668 6.9696 -0.0603 -0.1085 -8.6616 -7.2671 10.6601 -19.3216 -11.6362 19.6839 19.6223 -0.0631 7.1806 10.1139 -0.0000 0.0000 0.0000 -87.5933 4.1362 5.1468 75.5773 -59.1992 -47.5432 -0.0000 -0.0000 29.3707 28.8736 32.5221 16.5131 -7.1250 0.0000 -0.0000 -4.2640 65.9924 -2.1620 -0.0000 0.0000 0.0000 78.5046 4.0813 27.8083 -61.2382 56.6310 -35.3733 0.0000 -0.0000 -6.3641 -28.2805 31.1202 -15.5391 7.1250 -0.0000 -0.0000 1.8054 4.4374 1.9406
4.9904 14.8220 -13.8540 -3.2277 -21.1179 -0.8645 0.0000 0.0000 0.0000 -13.9267 -3.7341 -42.1063 18.5771 19.9514 85.8365 0.8985 -11.7825 -17.6584 1.5667 -7.8983 -22.4056 0.0000 0.0000 0.0000 1.7551 17.0406 -52.8995 -15.0311 -19.3974 75.3302 -0.5541 -1.4041 -14.6390 -0.0191 0.8933 -2.4554 6.3965 -1.7478 32.5620 3.0728 0.0227 7.4044 -0.1570 -0.1697 -8.5030 -6.7051 10.9875 -19.1202 -12.8543 20.1487 18.9866 -0.4836 7.3602 10.0777 -0.0000 0.0000 0.0000 -87.2726 4.2886 4.8629 73.0048 -58.8800 -45.3371 -0.0000 -0.0000 28.0653 28.4589 32.7087 16.3250 -7.1250 0.0000 -0.0000 -4.9303 66.0644 -2.5087 -0.0000 0.0000 0.0000 78.6615 4.3246 26.3903 -59.4329 56.1569 -33.8696 0.0000 -0.0000 -6.7440 -28.1506 30.7465 -15.2994 7.1250 -0.0000 -0.0000 1.8099 4.0111 1.9330
5.0333 14.8485 -13.4723 -2.3280 -22.6636 -1.8465 0.0000 0.0000 0.0000 -14.9819 -2.2405 -41.6669 19.1862 19.9841 87.6200 0.3648 -13.0842 -13.2650 1.3545 -7.3673 -20.8083 0.0000 0.0000 0.0000 1.4435 17.9239 -53.7839 -13.5065 -18.9575 70.6914 -0.4653 -0.3715 -13.0267 -0.1040 2.0799 -5.7266 6.0391 -1.6582 33.5232 2.8299 0.0343 7.6735 -0.2153 -0.1665 -8.5820 -6.9131 11.2276 -19.0017 -13.1079 20.5823 18.9832 -0.4796 7.5213 10.0879 0.0000 -0.0000 0.0000 -86.6773 4.4790 5.3347 69.6115 -58.3695 -42.4397 -0.0000 -0.0000 26.4434 28.9731 33.2071 16.8694 -7.1250 0.0000 -0.0000 -4.5937 66.7300 -2.4073 0.0000 -0.0000 0.0000 78.8043 4.2590 24.9808 -57.8393 55.7061 -32.5496 0.0000 -0.0000 -7.3111 -28.4611 30.0324 -15.1792 7.1250 -0.0000 -0.0000 1.5035 3.3381 1.5890
5.0727 14.8609 -13.0902 -1.8717 -23.9374 -2.5813 0.0000 0.0000 0.0000 -15.3892 -0.9484 -41.4846 19.7950 19.9990 89.4006 -0.0491 -13.4301 -8.8036 1.4912 -7.7144 -21.8500 0.0000 0.0000 0.0000 1.8093 18.4711 -54.3306 -11.9338 -18.3625 65.7789 -0.3462 0.2633 -11.0245 -0.3442 3.7696 -10.4293 6.3582 -1.7939 34.6831 2.6335 0.0318 7.6458 -0.5424 -0.1866 -8.9185 -7.6888 11.2878 -19.0575 -12.4802 20.8206 19.5259 -0.1295 7.5920 10.1438 -0.0000 -0.0000 0.0000 -86.3805 4.4820 5.3634 66.2757 -57.7626 -39.6085 -0.0000 -0.0000 25.2528 29.8232 33.0534 17.3623 -7.1250 0.0000 -0.0000 -3.3501 66.8238 -1.7621 -0.0000 -0.0000 0.0000 78.8860 3.9716 23.7193 -56.3483 55.2556 -31.3210 0.0000 -0.0000 -7.8071 -29.2358 29.2983 -15.3173 7.1250 -0.0000 -0.0000 0.9268 2.7594 0.9704
5.1087 14.8793 -12.7023 -2.0349 -24.9272 -3.0999 0.0000 0.0000 0.0000 -15.0007 0.0505 -41.4376 20.3686 19.9967 91.0779 -0.3958 -13.5872 -3.4383 1.2508 -7.0906 -19.9841 0.0000 0.0000 0.0000 2.9377 18.9252 -54.0993 -10.3791 -17.6176 60.7480 -0.1858 0.5062 -7.9761 -0.3648 3.8799 -10.7390 7.3938 -2.1741 35.6222 2.5072 -0.0346 7.7734 -1.1725 -0.2413 -9.0979 -8.1929 11.2564 -19.3392 -11.9782 20.9307 20.0894 0.1418 7.5903 10.2881 0.0000 0.0000 0.0000 -86.3777 4.3713 5.0033 64.0274 -57.2910 -37.7116 -0.0000 -0.0000 24.9950 30.1436 32.7795 17.4528 -7.1250 0.0000 -0.0000 -2.7408 66.6338 -1.4294 0.0000 0.0000 0.0000 78.8752 3.6428 22.8092 -55.1147 54.8610 -30.3097 0.0000 -0.0000 -8.4365 -29.9987 28.7680 -15.5276 7.1250 -0.0000 -0.0000 0.3906 2.3924 0.4066
5.1284 14.8988 -12.3048 -1.9714 -25.6486 -3.8170 0.0000 0.0000 0.0000 -14.7344 0.8722 -41.3039 20.8768 19.9816 92.5643 -0.6166 -14.0153 2.2992 0.7909 -5.6768 -15.8495 0.0000 0.0000 0.0000 3.9888 19.0374 -53.2548 -8.9388 -16.7682 55.8783 -0.0870 0.1793 -5.5080 -0.3939 4.0298 -11.1606 8.1564 -2.6263 36.3131 2.2847 -0.3170 8.0467 -1.6806 -0.3803 -9.0389 -8.1947 11.4051 -19.4663 -12.0112 21.2045 20.3036 0.1853 7.6791 10.4029 -0.0000 0.0000 0.0000 -86.1640 3.9792 4.6174 61.4083 -56.6737 -35.5154 -0.0000 -0.0000 25.3391 30.1294 32.7078 17.4116 -7.1250 0.0000 -0.0000 -2.7148 66.5548 -1.4110 -0.0000 0.0000 0.0000 78.8838 3.2620 22.4032 -53.9989 54.4863 -29.3994 0.0000 -0.0000 -9.2360 -30.8214 28.5414 -15.9110 7.1250 -0.0000 -0.0000 -0.1264 2.3678 -0.1315
